<svg width="150" height="60" viewBox="0 0 150 60" fill="none" xmlns="http://www.w3.org/2000/svg">
  <!-- Background circle -->
  <circle cx="30" cy="30" r="25" fill="#9636c2" opacity="0.1"/>
  
  <!-- Main logo icon - Veterinary cross with pet silhouette -->
  <g transform="translate(10, 10)">
    <!-- Cross symbol -->
    <rect x="18" y="8" width="4" height="24" fill="#9636c2" rx="2"/>
    <rect x="10" y="16" width="20" height="4" fill="#9636c2" rx="2"/>
    
    <!-- Pet silhouette (dog and cat) -->
    <path d="M8 25c0-2 1-3 2-3s2 1 2 3v8c0 1-1 2-2 2s-2-1-2-2v-8z" fill="#30efb9"/>
    <path d="M30 25c0-2 1-3 2-3s2 1 2 3v8c0 1-1 2-2 2s-2-1-2-2v-8z" fill="#30efb9"/>
    
    <!-- Heart symbol -->
    <path d="M20 35c-1-1-3-3-3-5s1-3 3-3 3 1 3 3-2 4-3 5z" fill="#ff6b9d" opacity="0.8"/>
  </g>
  
  <!-- Text -->
  <text x="65" y="25" font-family="Inter, sans-serif" font-size="24" font-weight="700" fill="#9636c2">TRvet</text>
  <text x="65" y="42" font-family="Inter, sans-serif" font-size="10" font-weight="400" fill="#666">Centro Veterinário</text>
  
  <!-- Decorative elements -->
  <circle cx="140" cy="15" r="2" fill="#30efb9" opacity="0.6"/>
  <circle cx="135" cy="45" r="1.5" fill="#9636c2" opacity="0.4"/>
  <circle cx="145" cy="35" r="1" fill="#30efb9" opacity="0.8"/>
</svg>